<svg width="128" height="100" fill="none" xmlns="http://www.w3.org/2000/svg"><path fill-rule="evenodd" clip-rule="evenodd" d="M8.155 56.745l10.906-5.973v-18.27l35.206-20.064 16.678 9.499L82.08 15.85l-4.388-2.497L54.267.004 31.211 13.14 8.155 26.278v30.467z" fill="#fff"/><path d="M8.13 78.992V55.966l10.906-5.985v22.774l3.805 14.656-14.712-8.42zm86.556-33.039l-5.302 1.03V32.514L70.502 21.71l11.122-6.11 18.656 10.677v26.338l-5.593-6.663zM5.593 99.771c-2.055 0-3.551-.15-5.593-.15 0-3.752.964-4.857 3.297-7.68 2.88-3.5 3.234-5.019 8.865-5.91 3.196-.502 3.704.276 6.658 2.585.825.627 1.966 1.506 2.511 2.309.876-.201 5.327-1.48 6.05-1.506l-1.04-2.259c-.685-1.769-1.636-5.91-2.105-7.804-.9-3.576-2.308-6.952-2.308-10.917 0-6.211 1.192-8.595 7.558-11.393l10.78-5.208c.951-.966-1.014-.715 2.511-2.898.584-.364.723-.427.875-1.23.127-.678.19-1.154.292-1.82.304-1.744 3.703-20.653 3.703-21.657l4.528-2.397c.431.276.824.54 1.243.866 1.522 1.192-.343 1.142 2.358 3.815 2.46 2.447 1.383 1.945 3.678 2.635.508.163.99.313 1.484.49 2.194.815 6.988 5.62 9.17 7.24 3.525 2.622 5.681 4.893 7.837 8.733.964 1.719 4.173 9.423 5.847 10.54-.013-.477-.153-1.594-.241-2.171-.495-3.538-.406-3.037.672-3.237l5.656-1.305c.875-.176 3.056-.766 3.741-.778 3.12 3.651 2.93 3.425 3.12 3.651 1.814 2.108.546 3.69 3.653 6.425 2.156 1.907 1.192.112 2.739 3.877 1.611 3.952.216 3.488.609 4.63l1.547 3.877c.368 1.017.38 1.393 1.04 1.657.71.276 1.725.313 3.424 1.104 2.308 1.066 6.595 3.977 8.485 5.835 1.407 1.38 3.639 7.19 4.819 9.611a36.52 36.52 0 011.141 2.472c.698 1.694 2.892 6.362 3.006 7.667l-121.61.301zm3.576-10.114c-2.663 2.26-2.168 1.368-4.895 4.442L1.966 96.32c2.13 0 5.555-.903 7.267-2.095 1.737-1.23 3.45-3.488 3.627-5.546-3.741 0-2.36-.15-3.69.978zm6.557-.54c0 4.58-.254 2.21-.9 4.957.646-.15 1.686-.94 2.32-1.305.66-.389 1.712-.953 1.915-1.694-.532-.125-2.752-1.568-3.335-1.957zm46.975 1.72c1.015 1.292 2.169 2.535 2.942 3.978 2.308 0 6.874-.891 8.916-.891l-2.892-2.974c-1.775-1.406-2.346-2.836-5.212-3.539-4.312-1.054-2.346.126-3.538-2.183-.33-.652-.622-1.255-1.205-1.644 0 .778-.102.904-.152 1.506l-.153 4.63c.584.163.939.653 1.294 1.117zm-6.531-2.56c.85-.426 1.331-.866 1.864-1.593 1.027-1.38 2.435-3.853 2.016-5.66-1.56 0-1.179-.163-2.244 1.531-.951 1.506-3.983 5.521-4.262 6.713.977-.213 1.776-.564 2.626-.99zM44.92 72.492c.102.514.09-.088.102-.1.089-.44-.152-.189-.102.1zm-1.357 16.337c-.266-.552-.393-1.342-.697-2.007-.266-.578-.14-.716-1.725-.841-.368 1.33-.456-.891-.456 2.999 1.192 0 1.775-.15 2.878-.15zm-5.3.15c0-1.317.114-2.847-1.966-2.847-.533 0-.127 3.438.76 3.438.457 0 1.205.037 1.205-.59zm-5.264 3.414c.393.401 4.122 2.685 4.959 2.873-.089-1.054-1.306-2.672-2.042-3.212-.976-.728-2.232-1.43-3.55-1.731.177.778.139 1.568.633 2.07zm1.18-4.015c-.026-.352-.38-1.644-.558-1.845-.33-.364-1.459-.389-2.017-.401.216 1.593.964 2.108 2.575 2.246zM25.49 91.3c-.875.364-2.029.778-2.498 1.418.583.39 1.103.828 1.661 1.205 1.471-.778 3.31-2.008 4.084-3.45-.926 0-2.498.539-3.247.827zm4.756-3.074c-.634-1.318.203-2.096-1.966-2.096-.342 1.255-.456-.15-.444 2.861l2.41-.765zm7.863-28.032c-.723.176-3.26 1.644-4.185 2.146-.495.276-.938.451-1.395.715l-4.122 2.209c-.444.263-.786.501-1.331.627v.602c1.014-.025 10.437-3.049 11.642-3.15-.178-.752-.609-2.37-.609-3.149zM40 68.98c-.672-2.322.152-2.058-6.506.577-1.04.414-1.915.753-2.917 1.154-1.002.39-2.245.728-2.448 1.48.406.19-.127.151.457.151h1.661c2.486 0 7.914-.953 10.285-1.505-.05-.64-.355-1.205-.532-1.857zm-1.674 6.11c-1.801.452-7.927 2.372-8.688 3.388 1.535 0 3.019-.175 4.401-.288 1.535-.126 3.006-.126 4.4-.289 1.18-.125 4.097-.025 4.288-.389.126-.213-.977-2.898-1.13-3.225l-3.271.803zm2.967-18.934c0 5.496 1.015 7.679 2.55 12.46l.938 3.112c.114.338.025.138.14.313 0-1.844-1.586-7.679-2.03-10.126-1.712-9.373 3.285-7.867 5.961-7.867-2.283-3.363-7.559-3.627-7.559 2.108zm5.124 29.35c-.558.05-1.04-.114-1.04.476 0 1.23-.063 2.447 1.205 3.288 1.205-.277 2.207-1.28 2.727-2.247-1.472-2.17-1.18-1.643-2.892-1.518zm22.752-39l-6.9-3.789c-1.267-.627-2.231-1.18-3.487-1.807-.786-.389-2.93-1.48-3.728-1.543 0 2.685-1.814 11.067-1.814 15.584 0 1.456.71 2.522 1.42 3.539.685.978 2.676 3.425 1.916 4.705-2.042 3.438-5.01 4.354-5.758 11.092-.267 2.41-.013 5.672-.165 7.027-.216 1.945-1.142 1.355.47 4.367 2.092-.552 4.983-6.362 6.454-8.294.394-.515.812-1.18 1.294-1.569 1.89-1.53 6.734-.928 8.89-.928-.114-1.33-.913-2.723-.913-4.794 0-1.681-.101-1.392.812-1.606.95-.226 2.435-.728 3.272-.803 0-2.535.723-3.74 1.75-5.747.317-.615.165-.464.875-.64.621-.163 1.94-.489 2.524-.502-.064-.702-1.32-2.998-1.738-3.689-2.549-4.216-2.067-8.708-5.174-10.603zm5.06 3.978c-1.116-1.77-.609-1.342-2.384-2.271.457 1.004.342 1.455 1.42 3.225 1.028 1.706 4.35 7.679 5.53 8.457 0-2.949-3.006-6.951-4.566-9.41zm6.252 23.076l-.925.426c2.498 0 5.01-.263 7.394-.464 1.04-.075 2.422-.276 3.474-.452.546-.088 1.028-.2 1.624-.339.291-.075.647-.15.837-.213.38-.138.342-.113.583-.326-1.357 0-2.524-.301-4.084-.301-4.286 0-5.668.54-8.903 1.669zm4.515-20.403c0 1.782-.19 3.312.913 4.04 1.117-.74 1.104-2.986-.913-4.04zm4.54.452c-1.394 0-1.914 2.522.153 2.697.533-.79.609-1.405.609-2.697h-.761zm4.084-.603c-.913 0-1.965.301-2.879.301.394.527.647.15 1.42.54 1.104.552.825.627.85.954h1.066c-.05-.54-.317-1.23-.457-1.795zm17.54 25.171c-1.002-.226-2.663-1.154-3.475-1.342.025 1.041.761 3.049.761 3.902.013 1.807-3.171 5.145-4.401 7.177-.304.515-.685.803-.748 1.506.634-.05 1.801-.464 2.511-.665 1.408-.389 3.45-.916 4.705-1.48l2.017-1.005c-.038-1.405-1.37-6.687-1.37-8.093zm6.404 3.25c-.19-.552.064-.276-.596-.602-.811-.414-1.585-.979-2.321-1.142.444.991 2.689 6.06 3.019 6.45 0-1.03.101-4.104-.102-4.706z" fill="#1C1C1E"/></svg>