<svg width="88" height="88" fill="none" xmlns="http://www.w3.org/2000/svg"><circle cx="44" cy="44" r="44" fill="#fff"/><circle cx="44" cy="44" r="32" fill="#E9C143"/><path d="M45.92 47.512c0-.425-.095-.8-.286-1.122-.19-.337-.52-.616-.99-.836-.47-.22-1.1-.389-1.892-.506-.792-.117-1.79-.176-2.992-.176a93.04 93.04 0 00.396-4.158c.103-1.408.183-2.728.242-3.96h8.25v2.75h-5.5a47.43 47.43 0 01-.11 1.54c-.03.484-.066.91-.11 1.276 2.141.147 3.718.653 4.73 1.518 1.027.85 1.54 2.039 1.54 3.564 0 .704-.125 1.357-.374 1.958a4.211 4.211 0 01-1.122 1.562c-.499.44-1.13.785-1.892 1.034-.748.25-1.628.374-2.64.374-.396 0-.814-.03-1.254-.088-.425-.044-.843-.11-1.254-.198a13.362 13.362 0 01-1.078-.242 4.232 4.232 0 01-.748-.264l.594-2.706c.367.161.85.323 1.452.484.601.147 1.32.22 2.156.22 1.012 0 1.745-.198 2.2-.594.455-.41.682-.887.682-1.43z" fill="#1C1C1E"/></svg>