<svg width="164" height="64" fill="none" xmlns="http://www.w3.org/2000/svg"><g clip-path="url(#clip0)"><path fill-rule="evenodd" clip-rule="evenodd" d="M5.265 36.317l7.042-3.823V20.802L35.04 7.96l10.768 6.079 7.19-3.895-2.834-1.598L35.039.002 20.152 8.411 5.265 16.819v19.498z" fill="#FAFAFA"/><path d="M5.249 50.555V35.819l7.042-3.831v14.575l2.457 9.38-9.5-5.388zM61.136 29.41l-3.423.659v-9.26L45.52 13.895l7.181-3.911 12.046 6.834v16.856l-3.611-4.264zM3.61 63.853c-1.326 0-2.293-.096-3.611-.096 0-2.401.622-3.108 2.129-4.915 1.859-2.24 2.088-3.212 5.724-3.782 2.063-.321 2.39.177 4.299 1.654.532.402 1.269.964 1.621 1.478.565-.129 3.44-.948 3.906-.964l-.671-1.445c-.443-1.133-1.057-3.783-1.36-4.995-.581-2.29-1.49-4.45-1.49-6.987 0-3.975.77-5.501 4.88-7.292l6.96-3.333c.615-.618-.655-.457 1.622-1.855.377-.233.467-.273.565-.787.082-.433.123-.738.188-1.164.197-1.116 2.391-13.218 2.391-13.86l2.924-1.535c.278.177.532.346.802.554.983.763-.221.731 1.523 2.442 1.589 1.566.893 1.244 2.375 1.686.327.105.639.2.958.313 1.417.522 4.512 3.598 5.92 4.634 2.277 1.678 3.669 3.132 5.06 5.59.623 1.1 2.695 6.03 3.776 6.745-.008-.305-.099-1.02-.156-1.39-.32-2.264-.262-1.943.434-2.071l3.652-.835c.565-.113 1.974-.49 2.416-.498 2.014 2.337 1.891 2.192 2.014 2.337 1.171 1.349.352 2.36 2.358 4.111 1.393 1.221.77.073 1.77 2.482 1.04 2.53.138 2.232.392 2.963l1 2.482c.237.65.245.89.67 1.06.46.176 1.114.2 2.212.706 1.49.683 4.258 2.546 5.478 3.734.909.884 2.35 4.602 3.111 6.152.27.53.508 1.036.737 1.582.45 1.084 1.867 4.072 1.941 4.907l-78.52.192zm2.31-6.472c-1.72 1.445-1.4.875-3.161 2.843l-1.49 1.421c1.375 0 3.586-.578 4.691-1.341 1.122-.787 2.228-2.233 2.342-3.55-2.415 0-1.523-.096-2.383.627zm4.233-.346c0 2.932-.164 1.414-.582 3.173.418-.097 1.09-.603 1.499-.836.426-.249 1.105-.61 1.236-1.084-.344-.08-1.777-1.004-2.153-1.253zm30.33 1.1c.655.828 1.4 1.623 1.9 2.546 1.49 0 4.438-.57 5.756-.57l-1.867-1.903c-1.146-.9-1.515-1.815-3.365-2.265-2.784-.674-1.515.08-2.285-1.397-.213-.418-.4-.803-.778-1.052 0 .498-.065.578-.098.964l-.098 2.963c.377.104.606.418.835.715zm-4.217-1.638c.549-.273.86-.554 1.204-1.02.663-.883 1.572-2.465 1.302-3.621-1.008 0-.762-.105-1.45.98-.614.963-2.57 3.533-2.751 4.296.63-.137 1.146-.362 1.695-.635zm-7.263-10.102c.065.33.057-.056.065-.064.058-.281-.098-.12-.065.064zm-.876 10.456c-.172-.354-.254-.86-.45-1.285-.173-.37-.09-.458-1.114-.538-.238.851-.295-.57-.295 1.92.77 0 1.146-.097 1.859-.097zm-3.423.096c0-.843.074-1.823-1.27-1.823-.343 0-.081 2.2.492 2.2.295 0 .778.025.778-.377zm-3.398 2.184c.253.257 2.66 1.719 3.201 1.84-.057-.675-.843-1.711-1.318-2.056-.63-.466-1.441-.916-2.293-1.109.115.498.09 1.004.41 1.325zm.761-2.57c-.016-.224-.246-1.051-.36-1.18-.213-.233-.942-.249-1.302-.257.139 1.02.622 1.35 1.662 1.438zm-5.609 1.872c-.565.233-1.31.498-1.613.907.377.25.712.53 1.072.771.95-.498 2.138-1.285 2.637-2.208-.598 0-1.613.345-2.096.53zm3.07-1.968c-.409-.843.132-1.34-1.269-1.34-.22.802-.294-.097-.286 1.83l1.556-.49zm5.078-17.94c-.467.112-2.105 1.052-2.703 1.373-.319.177-.606.29-.9.458l-2.662 1.413c-.286.169-.507.322-.86.402v.385c.656-.016 6.74-1.951 7.518-2.015-.115-.482-.393-1.518-.393-2.016zm1.22 5.621c-.434-1.485.098-1.317-4.201.37-.672.265-1.236.482-1.883.739-.647.248-1.45.465-1.58.947.261.12-.083.096.294.096h1.073c1.605 0 5.11-.61 6.64-.963-.032-.41-.229-.771-.343-1.189zm-1.081 3.911c-1.163.29-5.118 1.518-5.61 2.168.991 0 1.95-.112 2.842-.184.99-.08 1.94-.08 2.841-.185.762-.08 2.645-.016 2.768-.249.082-.136-.63-1.855-.729-2.064l-2.112.514zm1.916-12.118c0 3.517.655 4.915 1.646 7.974l.606 1.992c.073.217.016.088.09.2 0-1.18-1.024-4.914-1.31-6.48-1.106-5.999 2.12-5.035 3.848-5.035-1.474-2.152-4.88-2.321-4.88 1.349zm3.308 18.784c-.36.032-.671-.073-.671.305 0 .787-.041 1.566.777 2.104.778-.177 1.425-.82 1.761-1.438-.95-1.389-.761-1.052-1.867-.971zm14.69-24.96l-4.454-2.425c-.82-.401-1.442-.755-2.252-1.156-.508-.25-1.892-.948-2.408-.988 0 1.719-1.17 7.083-1.17 9.974 0 .932.458 1.614.917 2.265.442.626 1.727 2.192 1.236 3.011-1.318 2.2-3.234 2.787-3.718 7.1-.172 1.541-.008 3.63-.106 4.496-.14 1.245-.737.868.303 2.795 1.351-.353 3.218-4.072 4.168-5.308.254-.33.524-.755.835-1.004 1.22-.98 4.348-.594 5.74-.594-.073-.852-.59-1.743-.59-3.068 0-1.076-.065-.891.525-1.028.614-.145 1.572-.466 2.112-.514 0-1.622.467-2.393 1.13-3.678.205-.393.107-.297.566-.41.4-.104 1.252-.313 1.629-.32-.04-.45-.852-1.92-1.122-2.362-1.646-2.698-1.334-5.573-3.34-6.785zm3.268 2.546c-.721-1.132-.393-.86-1.54-1.453.295.642.221.931.917 2.063.663 1.093 2.809 4.915 3.57 5.413 0-1.887-1.94-4.449-2.947-6.023zm4.037 14.769l-.598.272c1.613 0 3.234-.168 4.774-.297a27.25 27.25 0 002.243-.289c.352-.056.663-.128 1.048-.217.189-.048.418-.096.54-.136.246-.088.222-.072.377-.209-.876 0-1.629-.193-2.636-.193-2.768 0-3.66.346-5.748 1.069zM54.88 34.02c0 1.14-.123 2.12.59 2.585.72-.473.712-1.91-.59-2.585zm2.931.289c-.9 0-1.236 1.614.098 1.726.344-.506.393-.9.393-1.726h-.49zm2.637-.386c-.59 0-1.27.193-1.859.193.254.337.418.096.917.345.712.354.532.402.549.61h.688c-.033-.345-.205-.786-.295-1.148zm11.324 16.11c-.646-.145-1.72-.74-2.243-.86.016.667.491 1.952.491 2.498.008 1.156-2.047 3.293-2.841 4.593-.197.33-.442.514-.483.964.41-.032 1.162-.297 1.621-.425.909-.25 2.227-.587 3.038-.948l1.302-.642c-.025-.9-.885-4.28-.885-5.18zm4.136 2.08c-.123-.354.04-.177-.385-.386-.524-.265-1.024-.626-1.499-.73.287.634 1.736 3.878 1.95 4.127 0-.658.065-2.626-.066-3.011zm12.422-30.34h-1.957c-1.679 0-3.104.594-4.283 1.783-1.18 1.18-1.769 2.602-1.769 4.248 0 1.646.59 3.052 1.77 4.224 1.178 1.165 2.603 1.75 4.282 1.75h1.957c1.113 0 2.063.394 2.858 1.165.786.771 1.179 1.703 1.179 2.803h-5.994c-2.817 0-5.233-.972-7.247-2.907-2.015-1.936-3.022-4.28-3.022-7.035 0-2.762 1.007-5.115 3.022-7.067 2.014-1.951 4.43-2.931 7.247-2.931h5.994c0 1.1-.393 2.032-1.18 2.803-.794.778-1.744 1.164-2.857 1.164zm23.01 14.736c-.844-.819-1.262-1.807-1.262-2.955v-5.75c0-1.63-.581-3.044-1.752-4.24-1.171-1.197-2.579-1.791-4.242-1.791-1.678 0-3.103.594-4.274 1.783-1.163 1.18-1.752 2.602-1.752 4.248v5.75c0 1.148-.418 2.136-1.253 2.955-.844.827-1.843 1.237-3.014 1.237v-9.942c0-2.762 1.008-5.115 3.022-7.067 2.014-1.951 4.438-2.931 7.271-2.931 2.809 0 5.225.98 7.239 2.931 2.023 1.952 3.03 4.305 3.03 7.067v9.942c-1.171 0-2.178-.41-3.013-1.237zm19.398-7.91c-.794.763-1.752 1.148-2.866 1.148h-7.623a5.936 5.936 0 002.178 2.916 5.816 5.816 0 003.488 1.116h1.957c1.114 0 2.072.393 2.866 1.164.803.771 1.196 1.703 1.196 2.803h-6.019c-2.833 0-5.249-.972-7.255-2.907-2.014-1.936-3.013-4.28-3.013-7.035 0-2.762 1.007-5.115 3.021-7.067 2.015-1.951 4.43-2.931 7.247-2.931h6.019c0 1.1-.393 2.032-1.196 2.803-.794.778-1.752 1.164-2.866 1.164h-1.957c-1.294 0-2.448.37-3.488 1.116a5.936 5.936 0 00-2.178 2.915h11.685c0 1.1-.393 2.032-1.196 2.795zm12.913 9.147c-2.833 0-5.248-.972-7.271-2.907-2.014-1.936-3.022-4.28-3.022-7.035v-9.998c1.171 0 2.17.41 3.014 1.237.835.819 1.253 1.806 1.253 2.955v5.806c0 1.646.589 3.052 1.76 4.224 1.163 1.165 2.588 1.75 4.266 1.75h5.994v-11.78c0-1.149.426-2.136 1.262-2.955.835-.828 1.842-1.237 3.013-1.237v15.973c1.269 0 2.26.425 2.981 1.277.72.843 1.08 1.742 1.08 2.69h-14.33zm-40.549 9.42c-.786.77-1.736 1.156-2.858 1.156h-4.061v15.676c-1.171 0-2.179-.41-3.014-1.229-.843-.827-1.26-1.807-1.26-2.955V48.322h-4.062c-1.122 0-2.072-.385-2.866-1.156-.786-.771-1.18-1.71-1.18-2.803h20.488c0 1.092-.401 2.032-1.187 2.803zm14.346 7.685c-.794.771-1.752 1.148-2.874 1.148h-7.624a6.007 6.007 0 002.187 2.916 5.823 5.823 0 003.488 1.124h1.949c1.122 0 2.08.385 2.874 1.156.794.78 1.196 1.71 1.196 2.803h-6.019c-2.833 0-5.249-.964-7.263-2.9-2.006-1.934-3.005-4.28-3.005-7.042 0-2.754 1.007-5.115 3.021-7.067 2.015-1.951 4.43-2.923 7.247-2.923h6.019c0 1.092-.402 2.024-1.196 2.803-.794.77-1.752 1.156-2.874 1.156h-1.949a5.823 5.823 0 00-3.488 1.124 6.007 6.007 0 00-2.187 2.916h11.694c0 1.092-.402 2.023-1.196 2.786zm22.076 2.417a9.591 9.591 0 011.106 4.49v2.24h-4.275v-2.24c0-1.63-.581-3.044-1.752-4.233-1.171-1.196-2.579-1.798-4.242-1.798-1.678 0-3.103.594-4.274 1.782-1.163 1.189-1.752 2.602-1.752 4.248v2.241h-4.267v-2.24c0-1.599.369-3.092 1.106-4.498a10.044 10.044 0 013.087-3.525 10.093 10.093 0 01-3.087-3.517 9.466 9.466 0 01-1.106-4.482v-1.373h4.267v1.373c0 1.639.589 3.06 1.752 4.249 1.171 1.188 2.596 1.782 4.274 1.782 1.663 0 3.071-.602 4.242-1.799 1.171-1.196 1.752-2.61 1.752-4.232v-1.373h4.275v1.373c0 1.59-.369 3.084-1.106 4.482a10.184 10.184 0 01-3.062 3.517 10.163 10.163 0 013.062 3.533z" fill="#F0C00C"/><path d="M155.017 47.302c-.786.787-1.179 1.735-1.179 2.843v2.024h-6.125c0 1.092.393 2.024 1.187 2.787a4.02 4.02 0 002.875 1.148h2.063v6.03c1.114 0 2.064-.393 2.858-1.172.786-.779 1.179-1.726 1.179-2.842v-2.016H164c0-1.1-.401-2.032-1.196-2.795-.794-.763-1.752-1.14-2.874-1.14h-2.055v-6.04c-1.122 0-2.072.394-2.858 1.173z" fill="#FAFAFA"/></g><defs><clipPath id="clip0"><path fill="#fff" d="M0 0h164v64H0z"/></clipPath></defs></svg>