<svg width="110" height="44" fill="none" xmlns="http://www.w3.org/2000/svg"><g clip-path="url(#clip0)"><path fill-rule="evenodd" clip-rule="evenodd" d="M3.532 24.968l4.723-2.628V14.3l15.247-8.828 7.222 4.18 4.822-2.678-1.9-1.099L23.502.002l-9.985 5.78-9.985 5.78v13.407z" fill="#1C1C1E"/><path d="M3.52 34.756v-10.13l4.724-2.634v10.02l1.648 6.449-6.371-3.705zM41.007 20.22l-2.296.453v-6.366l-8.178-4.753 4.817-2.689 8.079 4.698v11.59l-2.422-2.933zM2.422 43.9c-.89 0-1.538-.066-2.422-.066 0-1.65.417-2.137 1.428-3.379 1.247-1.54 1.4-2.208 3.84-2.6 1.383-.221 1.603.121 2.883 1.137.357.276.85.663 1.087 1.016.379-.088 2.307-.652 2.62-.663l-.45-.993c-.297-.779-.709-2.6-.912-3.434-.39-1.574-1-3.06-1-4.804 0-2.733.516-3.782 3.274-5.013l4.668-2.291c.412-.425-.44-.315 1.088-1.276.252-.16.313-.187.378-.54.055-.299.083-.509.127-.801.132-.768 1.604-9.088 1.604-9.53l1.96-1.054c.187.121.357.237.539.38.659.525-.149.503 1.021 1.68 1.066 1.076.599.855 1.593 1.159.22.072.428.138.643.215.95.359 3.026 2.473 3.97 3.186 1.527 1.154 2.461 2.153 3.395 3.842.417.757 1.807 4.147 2.532 4.638-.006-.21-.066-.701-.105-.955-.214-1.557-.175-1.336.291-1.425l2.45-.574c.379-.077 1.324-.337 1.62-.342 1.351 1.607 1.269 1.507 1.351 1.607.786.927.236 1.623 1.582 2.826.934.84.516.05 1.187 1.706.697 1.74.093 1.535.263 2.038l.67 1.706c.16.447.165.612.45.728.308.122.748.138 1.484.486 1 .47 2.855 1.75 3.674 2.568.61.607 1.576 3.163 2.087 4.229.181.364.34.712.494 1.087.302.746 1.252 2.8 1.302 3.374L2.422 43.9zm1.549-4.45c-1.153.994-.94.602-2.12 1.955l-1 .977c.923 0 2.406-.398 3.147-.922.753-.541 1.494-1.535 1.571-2.44-1.62 0-1.021-.067-1.598.43zm2.84-.237c0 2.015-.11.972-.39 2.18.28-.066.73-.413 1.005-.574.285-.17.741-.42.829-.745-.23-.055-1.192-.69-1.445-.861zm20.343.756c.44.569.94 1.115 1.274 1.75 1 0 2.977-.392 3.861-.392l-1.252-1.308c-.769-.618-1.016-1.248-2.257-1.557-1.868-.464-1.016.055-1.533-.96-.142-.288-.269-.553-.521-.724 0 .342-.044.398-.066.663l-.066 2.037c.252.072.406.287.56.491zm-2.829-1.126a2.04 2.04 0 00.808-.701c.445-.608 1.054-1.695.873-2.49-.675 0-.51-.072-.972.673-.412.663-1.725 2.43-1.845 2.954.422-.094.768-.248 1.136-.436zm-4.871-6.945c.044.226.038-.04.044-.045.038-.193-.066-.082-.044.044zm-.588 7.188c-.115-.243-.17-.59-.302-.883-.115-.255-.06-.315-.747-.37-.16.585-.198-.392-.198 1.32.517 0 .77-.067 1.247-.067zm-2.296.066c0-.58.05-1.253-.851-1.253-.23 0-.055 1.513.33 1.513.197 0 .521.016.521-.26zm-2.279 1.502c.17.177 1.785 1.181 2.148 1.264-.039-.464-.566-1.176-.885-1.413-.423-.32-.966-.63-1.538-.762.077.342.06.69.275.91zm.51-1.767c-.01-.155-.164-.723-.24-.812-.144-.16-.633-.17-.874-.176.093.701.417.927 1.115.988zm-3.761 1.286c-.38.16-.88.343-1.082.624.252.172.477.365.72.53.636-.342 1.432-.883 1.768-1.518-.401 0-1.082.237-1.406.364zm2.06-1.352c-.275-.58.087-.922-.852-.922-.148.552-.198-.066-.192 1.259l1.043-.337zm3.404-12.334c-.313.077-1.411.723-1.812.944-.214.121-.406.199-.604.315l-1.785.971c-.193.116-.34.221-.577.276v.265c.44-.01 4.52-1.341 5.042-1.385-.077-.332-.264-1.044-.264-1.386zm.819 3.865c-.291-1.022.066-.906-2.818.254-.45.182-.83.33-1.263.508-.434.17-.972.32-1.06.651.176.083-.055.066.198.066h.72c1.076 0 3.426-.42 4.453-.662-.021-.282-.153-.53-.23-.817zm-.725 2.688c-.78.2-3.433 1.044-3.762 1.491.664 0 1.307-.077 1.905-.127.665-.055 1.302-.055 1.906-.127.511-.055 1.774-.011 1.857-.171.054-.094-.423-1.275-.49-1.419l-1.416.353zm1.285-8.331c0 2.418.44 3.379 1.104 5.483l.406 1.369c.05.149.011.06.06.138 0-.812-.686-3.38-.878-4.456-.741-4.124 1.422-3.462 2.581-3.462-.988-1.48-3.273-1.595-3.273.928zm2.219 12.914c-.242.022-.45-.05-.45.21 0 .54-.028 1.076.521 1.446.522-.121.956-.563 1.181-.988-.637-.955-.51-.723-1.252-.668zm9.853-17.16l-2.988-1.667c-.549-.276-.966-.519-1.51-.795-.34-.171-1.269-.651-1.615-.68 0 1.182-.785 4.87-.785 6.858 0 .64.307 1.11.615 1.557.296.43 1.159 1.507.83 2.07-.885 1.513-2.17 1.916-2.494 4.881-.116 1.06-.006 2.495-.072 3.092-.093.855-.494.596.204 1.921.906-.243 2.158-2.8 2.795-3.65.17-.226.352-.518.56-.69.819-.673 2.917-.408 3.85-.408-.049-.585-.395-1.198-.395-2.11 0-.739-.044-.612.352-.706.411-.1 1.054-.32 1.416-.353 0-1.115.314-1.645.758-2.529.138-.27.072-.204.38-.281.268-.072.84-.216 1.092-.221-.027-.31-.57-1.32-.752-1.623-1.104-1.855-.895-3.832-2.24-4.666zm2.192 1.75c-.484-.778-.264-.59-1.033-.999.198.442.148.64.615 1.42.445.75 1.884 3.378 2.395 3.72 0-1.297-1.302-3.058-1.977-4.14zm2.707 10.154l-.4.188c1.081 0 2.169-.117 3.201-.205.45-.033 1.05-.121 1.505-.199.236-.038.445-.088.703-.149.127-.033.28-.066.363-.093.165-.061.148-.05.252-.144-.587 0-1.093-.133-1.768-.133-1.857 0-2.455.238-3.856.735zm1.956-8.977c0 .784-.083 1.457.395 1.777.483-.325.478-1.314-.395-1.777zm1.966.198c-.604 0-.83 1.11.066 1.187.23-.348.263-.618.263-1.187h-.33zm1.768-.265c-.395 0-.851.133-1.246.133.17.232.28.066.615.237.478.243.357.276.368.42h.461c-.022-.238-.137-.541-.198-.79zm7.596 11.076c-.434-.1-1.153-.508-1.505-.591.011.458.33 1.341.33 1.717.005.795-1.373 2.263-1.906 3.158-.132.226-.297.353-.324.662.275-.022.78-.204 1.087-.292.61-.171 1.494-.403 2.038-.652l.873-.441c-.016-.619-.593-2.943-.593-3.562zm2.774 1.43c-.083-.244.027-.122-.258-.266-.352-.182-.687-.43-1.005-.502.192.436 1.164 2.667 1.307 2.838 0-.453.044-1.806-.044-2.07zm8.331-20.86h-1.312c-1.126 0-2.082.409-2.873 1.226a4.042 4.042 0 00-1.186 2.92c0 1.132.395 2.098 1.186 2.904.791.8 1.747 1.204 2.873 1.204h1.312c.747 0 1.385.27 1.917.8.528.53.791 1.17.791 1.927h-4.02c-1.89 0-3.51-.668-4.86-1.998-1.352-1.33-2.028-2.943-2.028-4.837 0-1.899.676-3.517 2.027-4.858 1.351-1.342 2.971-2.015 4.86-2.015h4.021a2.63 2.63 0 01-.79 1.926c-.533.536-1.17.8-1.918.8zM74.68 25.1a2.764 2.764 0 01-.846-2.032v-3.953c0-1.12-.39-2.092-1.175-2.915-.786-.822-1.73-1.231-2.845-1.231-1.126 0-2.082.409-2.867 1.226a4.077 4.077 0 00-1.176 2.92v3.953c0 .79-.28 1.469-.84 2.032-.566.569-1.236.85-2.021.85v-6.835c0-1.899.675-3.517 2.027-4.858 1.35-1.342 2.976-2.015 4.877-2.015 1.883 0 3.504.673 4.855 2.015 1.356 1.341 2.032 2.959 2.032 4.858v6.835a2.736 2.736 0 01-2.021-.85zm13.011-5.438a2.647 2.647 0 01-1.922.79h-5.114c.28.822.77 1.49 1.461 2.003a3.838 3.838 0 002.34.768h1.313c.747 0 1.39.27 1.922.8.538.53.802 1.17.802 1.927h-4.037c-1.9 0-3.52-.668-4.866-1.998-1.351-1.33-2.021-2.943-2.021-4.837 0-1.899.675-3.517 2.026-4.858 1.352-1.342 2.972-2.015 4.861-2.015h4.037c0 .756-.264 1.396-.802 1.926-.533.536-1.175.8-1.922.8h-1.313c-.868 0-1.642.255-2.34.768a4.078 4.078 0 00-1.46 2.005h7.837c0 .756-.264 1.396-.802 1.92zm8.662 6.288c-1.9 0-3.521-.668-4.878-1.998-1.35-1.33-2.026-2.943-2.026-4.837v-6.873c.785 0 1.455.281 2.02.85.561.563.841 1.242.841 2.031v3.992c0 1.132.396 2.098 1.181 2.904.78.8 1.736 1.204 2.862 1.204h4.02v-8.1c0-.789.285-1.468.846-2.031a2.734 2.734 0 012.021-.85v10.98c.851 0 1.516.293 1.999.879.483.58.725 1.198.725 1.85h-9.611zm-27.198 6.476a2.6 2.6 0 01-1.917.795h-2.724V44a2.752 2.752 0 01-2.022-.845c-.565-.569-.845-1.242-.845-2.032v-7.9H58.92c-.752 0-1.39-.266-1.922-.796a2.637 2.637 0 01-.79-1.926h13.74c0 .75-.268 1.396-.795 1.926zm9.622 5.284a2.63 2.63 0 01-1.928.79h-5.113c.285.822.774 1.49 1.466 2.004a3.843 3.843 0 002.34.773h1.307c.753 0 1.395.265 1.928.795.533.535.802 1.176.802 1.927h-4.037c-1.9 0-3.52-.663-4.872-1.994-1.345-1.33-2.015-2.942-2.015-4.842 0-1.893.675-3.516 2.026-4.858 1.351-1.342 2.972-2.01 4.861-2.01h4.037c0 .751-.27 1.392-.802 1.927a2.634 2.634 0 01-1.928.795h-1.307c-.868 0-1.642.26-2.34.773a4.122 4.122 0 00-1.466 2.004h7.843c0 .751-.27 1.392-.802 1.916zm14.807 1.662c.495.972.742 2.004.742 3.086v1.54h-2.867v-1.54c0-1.12-.39-2.092-1.175-2.91-.786-.822-1.73-1.236-2.846-1.236-1.126 0-2.081.409-2.867 1.226-.78.817-1.175 1.788-1.175 2.92v1.54h-2.861v-1.54c0-1.099.247-2.125.741-3.092a6.857 6.857 0 012.07-2.423 6.887 6.887 0 01-2.07-2.418 6.638 6.638 0 01-.741-3.081V30.5h2.861v.944c0 1.126.396 2.103 1.175 2.92.786.818 1.742 1.226 2.868 1.226 1.114 0 2.06-.414 2.844-1.237.786-.822 1.176-1.794 1.176-2.91V30.5h2.867v.944c0 1.093-.247 2.12-.742 3.08a6.956 6.956 0 01-2.054 2.419 6.942 6.942 0 012.054 2.429z" fill="#F0C00C"/><path d="M103.975 32.52a2.7 2.7 0 00-.791 1.955v1.391h-4.108c0 .751.263 1.391.796 1.916.538.524 1.175.79 1.928.79h1.384v4.146c.747 0 1.384-.27 1.917-.806.527-.536.791-1.187.791-1.955v-1.386H110c0-.756-.269-1.396-.802-1.92a2.645 2.645 0 00-1.928-.785h-1.378v-4.152c-.753 0-1.39.27-1.917.806z" fill="#1C1C1E"/></g><defs><clipPath id="clip0"><path fill="#fff" d="M0 0h110v44H0z"/></clipPath></defs></svg>