<svg width="152" height="24" fill="none" xmlns="http://www.w3.org/2000/svg"><path d="M12 17.235L6.179 20l1.209-6.12L3 9.392l6.179-.771L12 3l2.821 5.621L21 9.392l-4.388 4.488L17.821 20 12 17.235zm32 0L38.179 20l1.209-6.12L35 9.392l6.179-.771L44 3l2.821 5.621L53 9.392l-4.388 4.488L49.821 20 44 17.235zm32 0L70.179 20l1.209-6.12L67 9.392l6.179-.771L76 3l2.821 5.621L85 9.392l-4.388 4.488L81.821 20 76 17.235zm32 0L102.179 20l1.209-6.12L99 9.392l6.179-.771L108 3l2.821 5.621 6.179.771-4.388 4.488 1.209 6.12L108 17.235zm32 0L134.179 20l1.209-6.12L131 9.392l6.179-.771L140 3l2.821 5.621 6.179.771-4.388 4.488 1.209 6.12L140 17.235z" fill="#E9C143"/></svg>