<svg width="88" height="88" fill="none" xmlns="http://www.w3.org/2000/svg"><circle cx="44" cy="44" r="44" fill="#fff"/><circle cx="44" cy="44" r="32" fill="#E9C143"/><path d="M44.028 44.828c-.323 0-.667.03-1.034.088-.367.059-.653.14-.858.242 0 .059-.007.147-.022.264v.308c0 .528.037 1.027.11 1.496.073.47.198.88.374 1.232s.41.63.704.836c.293.19.66.286 1.1.286.367 0 .675-.073.924-.22a2.07 2.07 0 00.638-.594c.176-.235.3-.491.374-.77a2.91 2.91 0 00.132-.836c0-.748-.19-1.32-.572-1.716-.367-.41-.99-.616-1.87-.616zm.418-2.552c.953 0 1.76.132 2.42.396.675.25 1.225.594 1.65 1.034.425.44.733.953.924 1.54.19.587.286 1.21.286 1.87 0 .587-.11 1.188-.33 1.804a4.8 4.8 0 01-.968 1.672c-.425.499-.975.91-1.65 1.232-.66.323-1.445.484-2.354.484-1.833 0-3.227-.58-4.18-1.738-.953-1.159-1.43-2.757-1.43-4.796 0-1.467.227-2.765.682-3.894.455-1.13 1.1-2.075 1.936-2.838.85-.777 1.87-1.364 3.058-1.76 1.203-.41 2.552-.623 4.048-.638l.088 1.342c.03.425.059.873.088 1.342-.748.015-1.452.088-2.112.22a6.855 6.855 0 00-1.782.572c-.528.264-.99.609-1.386 1.034a4.26 4.26 0 00-.924 1.518c.323-.147.653-.25.99-.308.337-.059.653-.088.946-.088z" fill="#1C1C1E"/></svg>