<svg width="88" height="88" fill="none" xmlns="http://www.w3.org/2000/svg"><circle cx="44" cy="44" r="44" fill="#fff"/><circle cx="44" cy="44" r="32" fill="#E9C143"/><path d="M43.016 52.33c-.396 0-.814-.03-1.254-.088-.44-.044-.865-.11-1.276-.198-.41-.088-.785-.183-1.122-.286a6.472 6.472 0 01-.792-.286l.638-2.728c.381.161.865.337 1.452.528.601.176 1.342.264 2.222.264 1.012 0 1.753-.19 2.222-.572.47-.381.704-.895.704-1.54 0-.396-.088-.726-.264-.99a1.737 1.737 0 00-.682-.66 2.804 2.804 0 00-1.056-.352 7.011 7.011 0 00-1.276-.11h-1.276v-2.64h1.452c.323 0 .63-.03.924-.088a2.67 2.67 0 00.814-.286 1.58 1.58 0 00.55-.572c.147-.25.22-.557.22-.924a1.439 1.439 0 00-.638-1.232 1.698 1.698 0 00-.638-.286 2.421 2.421 0 00-.726-.11 5.27 5.27 0 00-1.76.286 7.402 7.402 0 00-1.452.704l-1.166-2.398c.235-.147.506-.3.814-.462a8.8 8.8 0 011.056-.44 9.712 9.712 0 011.21-.33c.44-.088.902-.132 1.386-.132.895 0 1.665.11 2.31.33.66.205 1.203.506 1.628.902.425.381.74.836.946 1.364.205.513.308 1.078.308 1.694 0 .601-.169 1.188-.506 1.76a3.36 3.36 0 01-1.364 1.276c.792.323 1.4.807 1.826 1.452.44.63.66 1.393.66 2.288 0 .704-.117 1.357-.352 1.958a4.034 4.034 0 01-1.1 1.54c-.499.425-1.137.763-1.914 1.012-.763.235-1.672.352-2.728.352z" fill="#1C1C1E"/></svg>