<svg width="88" height="88" fill="none" xmlns="http://www.w3.org/2000/svg"><circle cx="44" cy="44" r="44" fill="#fff"/><circle cx="44" cy="44" r="32" fill="#E9C143"/><path d="M48.912 40.758c0 .557-.11 1.093-.33 1.606a7.702 7.702 0 01-.858 1.496c-.352.47-.748.924-1.188 1.364-.44.44-.873.858-1.298 1.254-.22.205-.462.44-.726.704-.25.25-.491.506-.726.77s-.447.513-.638.748c-.176.22-.286.403-.33.55h6.556V52H39.21a3.55 3.55 0 01-.044-.616v-.528c0-.704.11-1.35.33-1.936a7.31 7.31 0 01.902-1.628c.367-.513.777-.99 1.232-1.43.47-.44.931-.88 1.386-1.32l.99-.946c.308-.308.58-.601.814-.88a4.41 4.41 0 00.55-.858c.132-.293.198-.587.198-.88 0-.645-.183-1.1-.55-1.364-.367-.264-.821-.396-1.364-.396-.396 0-.77.066-1.122.198a5.068 5.068 0 00-.946.44 4.83 4.83 0 00-.726.506 5.43 5.43 0 00-.462.396L38.77 38.47a8.154 8.154 0 012.244-1.474 6.582 6.582 0 012.772-.594c.895 0 1.665.103 2.31.308.645.205 1.173.499 1.584.88.425.367.733.821.924 1.364.205.528.308 1.13.308 1.804z" fill="#1C1C1E"/></svg>